<svg xmlns="http://www.w3.org/2000/svg" width="535" height="356" viewBox="0 0 535 356">
<g>
<path d="M 0.00 0.00 L 535.00 0.00 L 535.00 356.00 L 0.00 356.00 ZM 261.31 243.75 L 349.72 332.00 L 449.50 331.96 L 393.37 275.98 L 337.24 220.00 L 357.87 219.98 C381.06,219.97 390.39,218.57 404.99,212.94 C422.61,206.15 440.30,190.94 450.47,173.85 C465.83,148.03 467.90,116.10 455.96,88.91 C443.75,61.09 419.48,40.80 390.38,34.10 C381.30,32.01 380.37,32.00 215.38,32.00 L 49.51 32.00 L 81.48 63.98 L 113.45 95.96 L 241.98 96.23 L 370.50 96.50 L 377.46 100.00 C385.69,104.13 390.19,109.41 392.61,117.73 C396.58,131.40 389.53,146.16 376.05,152.39 C371.54,154.48 370.52,154.50 272.20,155.00 L 172.89 155.50 ZM 133.00 246.08 C133.00,294.16 133.37,328.03 133.90,327.83 C134.71,327.53 147.71,317.05 158.50,308.00 C163.10,304.14 204.21,270.72 215.08,262.00 C218.85,258.98 221.95,256.24 221.97,255.92 C221.99,255.60 206.81,239.84 188.25,220.89 C169.69,201.95 149.66,181.39 143.75,175.22 L 133.00 163.99 Z" fill="rgb(19,22,38)"/>
<path d="M 355.81 32.21 C338.42,32.55 335.66,32.85 334.88,34.24 C334.37,35.15 333.35,36.51 332.61,37.25 C330.36,39.49 328.00,44.74 328.00,47.48 C328.00,49.17 326.81,51.11 324.56,53.08 C322.67,54.74 320.62,57.62 320.01,59.47 C319.40,61.32 317.80,63.56 316.45,64.44 C315.10,65.32 313.98,66.82 313.96,67.77 C313.94,68.72 311.91,71.07 309.44,73.00 C306.27,75.48 304.42,77.96 303.10,81.49 C301.33,86.23 298.51,88.98 293.76,90.63 C292.80,90.96 292.28,91.65 292.60,92.16 C292.91,92.67 292.65,93.72 292.01,94.49 C291.01,95.69 296.63,95.94 330.67,96.20 L 370.50 96.50 L 241.98 96.23 L 113.45 95.96 L 81.48 63.98 L 49.51 32.00 L 215.38 32.00 C291.41,32.00 332.61,32.00 355.81,32.21 ZM 136.71 325.77 C138.34,323.96 138.27,323.88 136.19,323.34 C134.11,322.80 134.00,322.23 134.00,312.29 C134.00,305.32 134.57,299.91 135.70,296.15 C136.63,293.04 137.29,290.13 137.17,289.68 C136.70,287.92 146.11,294.55 152.41,300.41 C157.06,304.74 157.24,305.08 155.66,306.82 C154.75,307.83 154.00,309.04 154.00,309.50 C154.00,309.96 153.21,311.26 152.25,312.37 C150.94,313.89 151.29,313.78 153.62,311.95 C154.33,311.39 155.55,310.42 157.14,309.14 C149.47,315.55 141.01,322.42 136.71,325.77 ZM 196.78 169.53 C196.08,169.54 195.01,169.86 194.41,170.24 C193.81,170.61 191.92,170.15 190.21,169.21 C186.44,167.13 177.00,158.28 177.00,156.81 C177.00,156.20 177.71,156.33 178.69,157.13 C180.06,158.23 180.23,158.24 179.58,157.16 C178.92,156.07 179.98,155.92 185.14,156.36 C208.23,158.30 211.56,159.48 205.68,163.64 C203.93,164.88 201.50,166.70 200.28,167.69 C199.06,168.69 197.48,169.51 196.78,169.53 ZM 422.72 48.42 C412.91,41.64 401.77,36.71 389.76,33.97 C389.22,33.85 388.70,33.74 388.20,33.63 C388.94,33.77 389.63,33.93 390.38,34.10 C402.10,36.80 413.03,41.70 422.72,48.42 ZM 133.00 246.08 C133.00,276.36 133.17,302.93 133.43,317.11 C133.16,303.50 133.00,277.90 133.00,246.08 ZM 214.97 262.08 C218.86,258.93 221.94,256.22 221.96,255.92 C221.98,255.65 211.12,244.32 196.53,229.36 C211.12,244.32 221.98,255.65 221.97,255.92 C221.95,256.24 218.85,258.98 215.08,262.00 Z" fill="rgb(92,200,242)"/>
<path d="M 261.31 243.75 L 172.89 155.50 L 272.20 155.00 C370.52,154.50 371.54,154.48 376.05,152.39 C389.53,146.16 396.58,131.40 392.61,117.73 C390.19,109.41 385.69,104.13 377.46,100.00 L 370.50 96.50 L 330.67 96.20 C296.63,95.94 291.01,95.69 292.01,94.49 C292.65,93.72 292.91,92.67 292.60,92.16 C292.28,91.65 292.80,90.96 293.76,90.63 C298.51,88.98 301.33,86.23 303.10,81.49 C304.42,77.96 306.27,75.48 309.44,73.00 C311.91,71.07 313.94,68.72 313.96,67.77 C313.98,66.82 315.10,65.32 316.45,64.44 C317.80,63.56 319.40,61.32 320.01,59.47 C320.62,57.62 322.67,54.74 324.56,53.08 C326.81,51.11 328.00,49.17 328.00,47.48 C328.00,44.74 330.36,39.49 332.61,37.25 C333.35,36.51 334.37,35.15 334.88,34.24 C335.66,32.85 338.42,32.55 355.81,32.21 C378.81,32.41 384.14,32.82 388.20,33.63 C388.70,33.74 389.22,33.85 389.76,33.97 C401.77,36.71 412.90,41.64 422.71,48.41 L 422.72 48.42 C437.07,58.37 448.67,72.30 455.96,88.91 C459.11,96.08 461.28,103.58 462.50,111.22 C462.40,110.69 462.29,110.15 462.18,109.58 C461.01,103.57 459.58,98.18 459.00,97.60 C457.58,96.18 454.72,98.01 454.02,100.77 C453.56,102.62 453.29,102.70 451.62,101.48 C450.54,100.68 450.00,99.45 450.34,98.55 C451.22,96.25 447.69,96.58 445.50,99.00 C444.50,100.10 444.01,101.00 444.40,101.00 C445.86,101.00 435.03,111.17 433.30,111.42 C432.31,111.57 431.34,112.52 431.14,113.54 C430.71,115.75 420.27,126.00 418.45,126.00 C417.74,126.00 416.38,126.30 415.42,126.67 C414.23,127.13 413.90,126.97 414.39,126.17 C414.79,125.53 414.75,125.00 414.31,125.00 C412.86,125.00 408.27,131.49 406.02,136.72 C404.46,140.35 402.98,142.18 400.91,143.04 C399.31,143.70 398.00,144.59 398.00,145.01 C398.00,145.44 395.19,148.65 391.76,152.14 C388.33,155.64 385.46,158.84 385.39,159.25 C385.31,159.66 385.19,160.68 385.12,161.50 C385.06,162.32 384.21,163.00 383.25,163.00 C382.29,163.00 378.69,165.73 375.25,169.06 C371.82,172.40 368.56,174.84 368.00,174.50 C367.45,174.16 367.00,174.26 367.00,174.72 C367.00,175.93 361.67,181.58 359.42,182.74 C358.37,183.29 355.10,184.30 352.17,184.99 C349.24,185.67 346.61,186.85 346.32,187.60 C346.03,188.35 343.38,190.35 340.42,192.05 C336.87,194.08 334.48,196.29 333.42,198.53 C332.53,200.40 330.91,202.21 329.81,202.56 C328.71,202.91 326.31,204.78 324.48,206.73 C322.54,208.78 319.98,210.39 318.36,210.57 C316.82,210.73 315.05,211.58 314.42,212.44 C313.79,213.30 312.78,214.00 312.17,214.00 C311.57,214.00 309.59,214.65 307.78,215.44 C305.98,216.23 303.28,217.13 301.79,217.45 C299.88,217.85 298.26,219.44 296.37,222.76 C293.04,228.59 290.97,231.10 289.98,230.49 C289.57,230.23 288.67,230.69 288.00,231.50 C287.33,232.31 286.38,232.73 285.89,232.43 C284.92,231.83 280.08,236.87 280.03,238.53 C280.01,239.09 279.22,240.67 278.27,242.03 C277.31,243.39 276.39,245.57 276.22,246.88 C276.04,248.19 274.92,250.05 273.73,251.02 C271.57,252.77 271.59,252.80 287.53,269.52 C291.28,273.45 296.65,278.95 302.58,284.95 ZM 133.00 246.08 L 133.00 163.99 L 143.75 175.22 C149.66,181.39 169.69,201.95 188.25,220.89 C191.11,223.80 193.88,226.64 196.53,229.36 L 196.64 229.47 C211.17,244.37 221.98,255.65 221.96,255.92 C221.94,256.22 218.86,258.93 214.97,262.08 C203.95,270.93 163.08,304.16 158.50,308.00 C158.05,308.38 157.60,308.76 157.14,309.14 C155.55,310.42 154.33,311.39 153.62,311.95 C151.29,313.78 150.94,313.89 152.25,312.37 C153.21,311.26 154.00,309.96 154.00,309.50 C154.00,309.04 154.75,307.83 155.66,306.82 C157.24,305.08 157.06,304.74 152.41,300.41 C146.11,294.55 136.70,287.92 137.17,289.68 C137.29,290.13 136.63,293.04 135.70,296.15 C134.57,299.91 134.00,305.32 134.00,312.29 C134.00,322.23 134.11,322.80 136.19,323.34 C138.27,323.88 138.34,323.96 136.71,325.77 C135.13,327.00 134.11,327.76 133.90,327.83 C133.72,327.90 133.56,324.07 133.43,317.11 C133.17,302.93 133.00,276.36 133.00,246.08 ZM 196.78 169.53 C197.48,169.51 199.06,168.69 200.28,167.69 C201.50,166.70 203.93,164.88 205.68,163.64 C211.56,159.48 208.23,158.30 185.14,156.36 C179.98,155.92 178.92,156.07 179.58,157.16 C180.23,158.24 180.06,158.23 178.69,157.13 C177.71,156.33 177.00,156.20 177.00,156.81 C177.00,158.28 186.44,167.13 190.21,169.21 C191.92,170.15 193.81,170.61 194.41,170.24 C195.01,169.86 196.08,169.54 196.78,169.53 ZM 326.86 309.14 L 350.21 332.00 L 349.72 332.00 L 324.19 306.52 C325.10,307.41 325.99,308.29 326.86,309.14 ZM 463.63 127.66 C463.41,139.01 461.13,150.33 456.83,161.00 C460.20,152.50 462.28,143.35 463.16,133.39 C463.36,131.17 463.52,129.30 463.63,127.66 ZM 419.84 205.27 C415.00,208.41 409.99,211.01 404.99,212.94 C398.34,215.51 392.78,217.19 386.51,218.27 C386.89,218.20 387.26,218.12 387.64,218.04 C399.52,215.53 410.29,211.25 419.84,205.27 Z" fill="rgb(118,132,231)"/>
<path d="M 326.86 309.14 C314.01,296.56 296.31,278.73 287.53,269.52 C271.59,252.80 271.57,252.77 273.73,251.02 C274.92,250.05 276.04,248.19 276.22,246.88 C276.39,245.57 277.31,243.39 278.27,242.03 C279.22,240.67 280.01,239.09 280.03,238.53 C280.08,236.87 284.92,231.83 285.89,232.43 C286.38,232.73 287.33,232.31 288.00,231.50 C288.67,230.69 289.57,230.23 289.98,230.49 C290.97,231.10 293.04,228.59 296.37,222.76 C298.26,219.44 299.88,217.85 301.79,217.45 C303.28,217.13 305.98,216.23 307.78,215.44 C309.59,214.65 311.57,214.00 312.17,214.00 C312.78,214.00 313.79,213.30 314.42,212.44 C315.05,211.58 316.82,210.73 318.36,210.57 C319.98,210.39 322.54,208.78 324.48,206.73 C326.31,204.78 328.71,202.91 329.81,202.56 C330.91,202.21 332.53,200.40 333.42,198.53 C334.48,196.29 336.87,194.08 340.42,192.05 C343.38,190.35 346.03,188.35 346.32,187.60 C346.61,186.85 349.24,185.67 352.17,184.99 C355.10,184.30 358.37,183.29 359.42,182.74 C361.67,181.58 367.00,175.93 367.00,174.72 C367.00,174.26 367.45,174.16 368.00,174.50 C368.56,174.84 371.82,172.40 375.25,169.06 C378.69,165.73 382.29,163.00 383.25,163.00 C384.21,163.00 385.06,162.32 385.12,161.50 C385.19,160.68 385.31,159.66 385.39,159.25 C385.46,158.84 388.33,155.64 391.76,152.14 C395.19,148.65 398.00,145.44 398.00,145.01 C398.00,144.59 399.31,143.70 400.91,143.04 C402.98,142.18 404.46,140.35 406.02,136.72 C408.27,131.49 412.86,125.00 414.31,125.00 C414.75,125.00 414.79,125.53 414.39,126.17 C413.90,126.97 414.23,127.13 415.42,126.67 C416.38,126.30 417.74,126.00 418.45,126.00 C420.27,126.00 430.71,115.75 431.14,113.54 C431.34,112.52 432.31,111.57 433.30,111.42 C435.03,111.17 445.86,101.00 444.40,101.00 C444.01,101.00 444.50,100.10 445.50,99.00 C447.69,96.58 451.22,96.25 450.34,98.55 C450.00,99.45 450.54,100.68 451.62,101.48 C453.29,102.70 453.56,102.62 454.02,100.77 C454.72,98.01 457.58,96.18 459.00,97.60 C459.58,98.18 461.01,103.57 462.18,109.58 C464.13,119.61 464.21,121.55 463.16,133.39 C461.18,155.75 453.16,173.96 438.18,190.09 C424.94,204.34 407.90,213.76 387.64,218.04 C380.33,219.58 374.38,219.97 357.87,219.98 L 337.24 220.00 L 393.37 275.98 L 449.50 331.96 L 399.86 331.98 L 350.21 332.00 L 326.86 309.14 Z" fill="rgb(175,98,216)"/>
</g>
</svg>